<svg xmlns="http://www.w3.org/2000/svg" xmlns:xlink="http://www.w3.org/1999/xlink" width="500" zoomAndPan="magnify" viewBox="0 0 375 374.999991" height="500" preserveAspectRatio="xMidYMid meet" version="1.0"><defs><g/><clipPath id="3397cfbdce"><path d="M 186 133 L 273.710938 133 L 273.710938 186 L 186 186 Z M 186 133 " clip-rule="nonzero"/></clipPath><clipPath id="48f4f5f78b"><path d="M 101.210938 138 L 202 138 L 202 197 L 101.210938 197 Z M 101.210938 138 " clip-rule="nonzero"/></clipPath><clipPath id="84686f9877"><path d="M 203.152344 191.753906 L 248.417969 191.753906 L 248.417969 219.3125 L 203.152344 219.3125 Z M 203.152344 191.753906 " clip-rule="nonzero"/></clipPath><clipPath id="4521efc04f"><path d="M 139 74.257812 L 230 74.257812 L 230 160 L 139 160 Z M 139 74.257812 " clip-rule="nonzero"/></clipPath><clipPath id="37c608fbd5"><path d="M 284 113 L 295 113 L 295 125.394531 L 284 125.394531 Z M 284 113 " clip-rule="nonzero"/></clipPath><clipPath id="642f0bb1cb"><path d="M 97 113 L 109 113 L 109 125.394531 L 97 125.394531 Z M 97 113 " clip-rule="nonzero"/></clipPath></defs><path fill="#8f4517" d="M 181.03125 184.949219 C 181.054688 184.949219 181.074219 184.945312 181.085938 184.941406 C 181.164062 184.910156 181.207031 184.820312 181.179688 184.738281 C 181.179688 184.734375 181.171875 184.730469 181.171875 184.726562 L 180.886719 184.851562 C 180.902344 184.890625 180.949219 184.949219 181.03125 184.949219 " fill-opacity="1" fill-rule="nonzero"/><path fill="#8f4517" d="M 170.695312 189.335938 C 170.582031 189.386719 170.488281 189.46875 170.4375 189.570312 C 170.382812 189.667969 170.378906 189.773438 170.421875 189.863281 L 173.0625 195.542969 C 173.105469 195.628906 173.1875 195.691406 173.296875 195.71875 C 173.40625 195.742188 173.53125 195.722656 173.644531 195.667969 L 183.199219 190.9375 L 175.660156 187.152344 L 170.695312 189.335938 " fill-opacity="1" fill-rule="nonzero"/><g clip-path="url(#3397cfbdce)"><path fill="#8f4517" d="M 259.976562 151.414062 C 259.675781 152.25 258.753906 152.679688 257.921875 152.375 L 246.507812 148.214844 C 245.675781 147.910156 245.246094 146.988281 245.550781 146.15625 C 245.851562 145.320312 246.773438 144.890625 247.605469 145.195312 L 259.019531 149.355469 C 259.851562 149.660156 260.28125 150.582031 259.976562 151.414062 Z M 259.28125 158.515625 C 258.976562 159.347656 258.058594 159.777344 257.226562 159.476562 L 239.542969 153.027344 C 238.710938 152.726562 238.28125 151.800781 238.585938 150.96875 C 238.886719 150.132812 239.808594 149.703125 240.640625 150.007812 L 258.320312 156.453125 C 259.15625 156.757812 259.582031 157.679688 259.28125 158.515625 Z M 256.921875 165.007812 C 256.621094 165.839844 255.699219 166.273438 254.867188 165.96875 L 237.183594 159.519531 C 236.351562 159.21875 235.921875 158.296875 236.226562 157.460938 C 236.527344 156.628906 237.449219 156.195312 238.28125 156.5 L 255.964844 162.949219 C 256.796875 163.25 257.226562 164.171875 256.921875 165.007812 Z M 248.0625 169.132812 C 247.757812 169.964844 246.839844 170.394531 246.003906 170.089844 L 234.59375 165.929688 C 233.757812 165.625 233.332031 164.703125 233.632812 163.871094 C 233.9375 163.035156 234.855469 162.605469 235.691406 162.910156 L 247.105469 167.070312 C 247.933594 167.375 248.367188 168.296875 248.0625 169.132812 Z M 272.816406 161.726562 L 260.40625 135.066406 C 259.574219 133.28125 257.355469 132.742188 255.492188 133.867188 L 223.90625 152.898438 C 222.367188 153.824219 221.730469 155.886719 222.476562 157.492188 L 222.894531 158.390625 C 223.746094 160.402344 225.277344 165.214844 221.433594 167.011719 C 221.414062 167.019531 221.398438 167.023438 221.382812 167.035156 L 186.667969 182.308594 L 194.121094 185.53125 L 223.34375 171.070312 C 227.179688 169.292969 229.867188 173.554688 230.855469 175.492188 L 231.289062 176.421875 C 232.035156 178.027344 234.023438 178.867188 235.71875 178.28125 L 270.574219 166.273438 C 272.628906 165.566406 273.648438 163.515625 272.816406 161.726562 " fill-opacity="1" fill-rule="nonzero"/></g><path fill="#8f4517" d="M 170.207031 198.3125 C 170 198.410156 169.75 198.320312 169.652344 198.113281 L 166.261719 190.824219 C 166.164062 190.617188 166.257812 190.371094 166.464844 190.269531 L 167.773438 189.660156 C 167.980469 189.5625 168.230469 189.652344 168.324219 189.863281 L 171.71875 197.148438 C 171.8125 197.355469 171.722656 197.605469 171.515625 197.703125 L 170.207031 198.3125 " fill-opacity="1" fill-rule="nonzero"/><path fill="#8f4517" d="M 155.945312 200.082031 C 155.609375 199.355469 155.921875 198.488281 156.648438 198.148438 C 157.375 197.8125 158.234375 198.125 158.574219 198.851562 C 158.914062 199.578125 158.597656 200.445312 157.871094 200.785156 C 157.148438 201.121094 156.285156 200.808594 155.945312 200.082031 Z M 129.117188 212.613281 C 128.777344 211.886719 129.09375 211.023438 129.816406 210.683594 C 130.542969 210.34375 131.40625 210.660156 131.746094 211.386719 C 132.082031 212.113281 131.769531 212.976562 131.042969 213.316406 C 130.316406 213.65625 129.453125 213.339844 129.117188 212.613281 Z M 154.929688 207.148438 C 155.496094 206.835938 156.058594 206.527344 156.625 206.21875 C 159.214844 204.800781 161.8125 203.300781 164.320312 201.855469 L 164.65625 201.660156 C 165.828125 200.984375 166.886719 200.371094 167.933594 199.742188 C 168.113281 199.632812 168.183594 199.40625 168.09375 199.21875 L 164.414062 191.3125 C 164.328125 191.121094 164.109375 191.03125 163.910156 191.097656 C 162.664062 191.53125 161.375 192 160.339844 192.378906 L 159.96875 192.515625 C 157.25 193.507812 154.4375 194.539062 151.6875 195.617188 C 151.089844 195.851562 150.492188 196.082031 149.890625 196.320312 C 144.097656 198.582031 138.101562 200.921875 132.421875 203.664062 L 132.039062 203.847656 C 128.375 205.609375 122.242188 208.554688 123.285156 213.722656 C 123.378906 214.191406 123.515625 214.671875 123.683594 215.117188 C 123.6875 215.128906 123.691406 215.136719 123.695312 215.148438 C 123.699219 215.15625 123.703125 215.164062 123.710938 215.175781 C 123.941406 215.589844 124.222656 216.007812 124.519531 216.378906 C 127.800781 220.5 133.996094 217.6875 137.699219 216.007812 L 138.085938 215.832031 C 143.832031 213.234375 149.472656 210.140625 154.929688 207.148438 " fill-opacity="1" fill-rule="nonzero"/><path fill="#8f4517" d="M 205.375 148.851562 C 205.363281 148.898438 205.339844 148.960938 205.304688 149.027344 C 204.128906 151.429688 201.5625 152.835938 199.246094 153.875 C 196.3125 155.191406 193.214844 156.03125 190.023438 156.425781 C 188.203125 156.652344 186.351562 156.761719 184.511719 156.789062 C 180.003906 156.851562 175.21875 156.136719 171.019531 154.46875 C 169.863281 154.011719 168.746094 153.464844 167.683594 152.820312 C 166.457031 152.074219 165.28125 151.203125 164.347656 150.101562 C 164.09375 149.800781 163.847656 149.480469 163.648438 149.136719 C 163.542969 148.953125 163.480469 148.777344 163.535156 148.769531 C 163.570312 148.738281 163.683594 148.859375 163.820312 149 C 165.046875 150.253906 166.476562 151.289062 168.035156 152.09375 C 171.558594 153.921875 175.523438 154.738281 179.453125 155.066406 C 180.835938 155.183594 182.222656 155.234375 183.613281 155.238281 C 185.625 155.242188 187.628906 155.1875 189.632812 155.011719 C 191.628906 154.835938 193.621094 154.523438 195.570312 154.054688 C 197.027344 153.703125 198.457031 153.214844 199.824219 152.597656 C 200.816406 152.148438 201.78125 151.625 202.6875 151.015625 C 203.585938 150.40625 204.382812 149.707031 205.140625 148.9375 C 205.246094 148.832031 205.335938 148.742188 205.363281 148.769531 C 205.371094 148.773438 205.375 148.78125 205.378906 148.792969 C 205.382812 148.804688 205.378906 148.828125 205.375 148.851562 Z M 184.449219 140.421875 C 169.34375 140.421875 160.484375 145.332031 160.484375 145.332031 L 160.214844 148.761719 C 160.214844 148.761719 165.117188 158.648438 184.449219 158.648438 C 203.785156 158.648438 208.683594 148.761719 208.683594 148.761719 L 208.683594 146.070312 C 208.683594 146.070312 199.554688 140.421875 184.449219 140.421875 " fill-opacity="1" fill-rule="nonzero"/><g clip-path="url(#48f4f5f78b)"><path fill="#8f4517" d="M 181.523438 186.148438 C 180.773438 186.421875 179.945312 186.035156 179.671875 185.285156 C 179.402344 184.535156 179.789062 183.703125 180.535156 183.433594 C 181.285156 183.160156 182.113281 183.546875 182.386719 184.296875 C 182.65625 185.046875 182.273438 185.875 181.523438 186.148438 Z M 172.261719 181.820312 C 171.511719 182.097656 170.683594 181.707031 170.414062 180.957031 C 170.140625 180.210938 170.527344 179.378906 171.277344 179.105469 C 172.023438 178.832031 172.851562 179.21875 173.125 179.96875 C 173.398438 180.71875 173.011719 181.550781 172.261719 181.820312 Z M 158.757812 172.566406 C 155.367188 170.285156 151.785156 167.636719 148.921875 165.375 C 147.660156 164.378906 146.335938 163.332031 145.015625 162.3125 C 144.492188 161.90625 143.960938 161.488281 143.441406 161.078125 C 141.855469 159.828125 140.183594 158.511719 138.363281 157.300781 C 138.023438 157.074219 137.621094 156.800781 137.152344 156.480469 C 134.007812 154.339844 127.867188 150.15625 121.40625 147.453125 C 115.222656 144.863281 110.195312 144.226562 106.589844 145.660156 C 107.316406 144.796875 108.042969 144.035156 108.5625 143.730469 C 110.835938 142.40625 113.34375 141.710938 116 141.660156 C 118.316406 141.613281 120.796875 142.054688 123.363281 142.957031 C 127.210938 144.308594 131.296875 146.695312 135.78125 150.160156 C 139.757812 153.230469 143.265625 156.769531 146.519531 160.050781 C 147.953125 161.496094 149.410156 162.964844 150.84375 164.328125 C 151.449219 164.90625 152.027344 165.496094 152.582031 166.066406 C 153.347656 166.851562 154.132812 167.65625 154.980469 168.40625 L 155.207031 168.609375 C 156.488281 169.742188 157.78125 170.886719 159.054688 171.925781 Z M 158.097656 173.984375 C 153.222656 171.492188 147.90625 168.785156 142.207031 166.253906 C 131.511719 161.503906 118.773438 155.773438 104.511719 148.484375 C 106.125 146.769531 108.453125 145.9375 111.410156 146.003906 C 114.132812 146.070312 117.398438 146.886719 121.0625 148.40625 C 127.433594 151.039062 133.53125 155.15625 136.65625 157.265625 C 137.128906 157.585938 137.535156 157.859375 137.875 158.085938 C 139.671875 159.269531 141.335938 160.570312 142.914062 161.804688 C 143.4375 162.210938 143.972656 162.628906 144.503906 163.035156 C 145.824219 164.046875 147.152344 165.089844 148.414062 166.078125 C 151.324219 168.359375 154.964844 171.027344 158.410156 173.316406 Z M 145.757812 171.789062 C 144.1875 171.453125 142.539062 171.105469 140.917969 170.742188 C 140.265625 170.597656 139.601562 170.453125 138.957031 170.316406 C 136.996094 169.898438 134.933594 169.457031 132.871094 168.839844 C 132.476562 168.722656 132.007812 168.585938 131.457031 168.425781 C 127.839844 167.386719 120.769531 165.351562 114.660156 162.15625 C 111.148438 160.316406 108.421875 158.339844 106.621094 156.289062 C 104.6875 154.085938 103.820312 151.78125 104.078125 149.460938 C 118.371094 156.695312 131.128906 162.371094 141.84375 167.074219 C 147.410156 169.515625 152.625 172.136719 157.410156 174.558594 C 153.726562 173.480469 149.777344 172.640625 145.757812 171.789062 Z M 157.070312 176.195312 C 155.457031 175.886719 153.75 175.628906 152.0625 175.375 L 151.757812 175.332031 C 150.640625 175.164062 149.519531 175.078125 148.425781 174.992188 C 147.636719 174.933594 146.8125 174.871094 145.980469 174.777344 C 144.015625 174.554688 141.957031 174.378906 139.929688 174.210938 C 135.328125 173.820312 130.371094 173.402344 125.46875 172.324219 C 119.933594 171.109375 115.480469 169.507812 111.972656 167.425781 C 109.636719 166.035156 107.703125 164.414062 106.25 162.605469 C 104.582031 160.535156 103.5 158.164062 103.054688 155.566406 C 102.953125 154.972656 103.066406 153.925781 103.257812 152.8125 C 104.480469 156.503906 108.203125 159.949219 114.15625 163.03125 C 120.378906 166.253906 127.523438 168.277344 131.179688 169.316406 C 131.726562 169.46875 132.195312 169.601562 132.585938 169.714844 C 134.683594 170.335938 136.761719 170.773438 138.738281 171.183594 C 139.386719 171.320312 140.046875 171.460938 140.695312 171.601562 C 142.324219 171.957031 143.972656 172.300781 145.546875 172.628906 C 149.523438 173.457031 153.640625 174.363281 157.40625 175.46875 Z M 143.191406 177.316406 C 139.945312 177.394531 136.492188 177.476562 133.015625 177.347656 C 122.765625 176.96875 114.292969 173.789062 108.21875 167.617188 C 106.542969 165.914062 105.207031 163.925781 104.285156 161.757812 C 105.9375 164.28125 108.320312 166.453125 111.386719 168.257812 C 115.007812 170.394531 119.574219 172.015625 125.226562 173.234375 C 130.191406 174.304688 135.179688 174.707031 139.808594 175.078125 C 141.828125 175.242188 143.878906 175.40625 145.832031 175.621094 C 146.675781 175.710938 147.507812 175.773438 148.304688 175.832031 C 149.386719 175.90625 150.492188 175.988281 151.582031 176.148438 L 151.886719 176.191406 C 152.859375 176.332031 153.835938 176.476562 154.796875 176.628906 C 151.066406 176.59375 147.015625 177.226562 143.191406 177.316406 Z M 121.09375 139.949219 C 129.71875 140.644531 137.597656 145.101562 144.476562 152.726562 C 146.808594 155.3125 148.964844 158.015625 150.992188 160.558594 C 153.40625 163.582031 155.550781 167.125 158.007812 169.976562 C 157.246094 169.3125 156.480469 168.628906 155.71875 167.949219 L 155.492188 167.746094 C 154.667969 167.011719 153.898438 166.214844 153.144531 165.433594 C 152.585938 164.859375 152.007812 164.261719 151.390625 163.671875 C 149.972656 162.3125 148.53125 160.84375 147.105469 159.398438 C 143.847656 156.085938 140.332031 152.515625 136.324219 149.390625 C 131.761719 145.835938 127.582031 143.375 123.621094 141.96875 C 120.273438 140.777344 117.078125 140.34375 114.085938 140.695312 C 116.335938 140.011719 118.71875 139.757812 121.09375 139.949219 Z M 200.714844 190.132812 L 164.539062 174.476562 L 164.566406 174.421875 C 163.234375 173.695312 161.863281 172.671875 160.371094 171.285156 C 157.132812 168.277344 154.582031 163.722656 151.613281 159.976562 C 149.589844 157.421875 147.4375 154.703125 145.097656 152.089844 C 141.941406 148.566406 138.511719 145.648438 134.894531 143.476562 C 130.546875 140.859375 125.890625 139.289062 121.0625 138.878906 C 117.417969 138.570312 113.769531 139.25 110.546875 140.867188 C 107.160156 142.566406 104.546875 145.160156 103.035156 148.347656 L 103.035156 148.355469 L 103.03125 148.355469 C 101.566406 151.566406 101.257812 155.242188 102.136719 158.929688 C 102.972656 162.445312 104.800781 165.679688 107.378906 168.277344 C 110.792969 171.722656 114.988281 174.285156 119.785156 175.941406 C 123.769531 177.320312 128.207031 178.078125 132.929688 178.234375 C 136.429688 178.351562 139.890625 178.253906 143.144531 178.164062 C 147.917969 178.035156 153.050781 177.046875 157.433594 177.597656 C 159.453125 177.851562 161.117188 178.246094 162.527344 178.800781 L 162.546875 178.765625 C 172.335938 183.683594 197.769531 196.464844 197.769531 196.464844 C 197.878906 196.519531 198.003906 196.539062 198.113281 196.515625 C 198.222656 196.492188 198.304688 196.425781 198.347656 196.335938 L 200.992188 190.660156 C 201.03125 190.570312 201.027344 190.464844 200.972656 190.367188 C 200.921875 190.265625 200.828125 190.183594 200.714844 190.132812 " fill-opacity="1" fill-rule="nonzero"/></g><path fill="#8f4517" d="M 201.753906 198.910156 L 205.148438 191.621094 C 205.246094 191.414062 205.152344 191.164062 204.945312 191.070312 L 203.636719 190.457031 C 203.429688 190.359375 203.183594 190.453125 203.085938 190.65625 L 199.691406 197.945312 C 199.597656 198.152344 199.6875 198.402344 199.894531 198.5 L 201.203125 199.109375 C 201.410156 199.207031 201.660156 199.117188 201.753906 198.910156 " fill-opacity="1" fill-rule="nonzero"/><g clip-path="url(#84686f9877)"><path fill="#8f4517" d="M 215.464844 200.878906 C 215.125 201.605469 214.265625 201.921875 213.539062 201.582031 C 212.8125 201.242188 212.5 200.375 212.835938 199.648438 C 213.175781 198.921875 214.039062 198.609375 214.761719 198.949219 C 215.488281 199.285156 215.804688 200.148438 215.464844 200.878906 Z M 242.292969 213.410156 C 241.957031 214.140625 241.09375 214.453125 240.367188 214.113281 C 239.640625 213.773438 239.328125 212.910156 239.667969 212.183594 C 240.003906 211.457031 240.867188 211.140625 241.59375 211.480469 C 242.320312 211.820312 242.632812 212.683594 242.292969 213.410156 Z M 219.722656 196.414062 C 216.972656 195.335938 214.15625 194.304688 211.4375 193.3125 L 211.070312 193.175781 C 209.800781 192.710938 208.65625 192.296875 207.496094 191.894531 C 207.300781 191.828125 207.085938 191.917969 206.996094 192.109375 L 203.316406 200.015625 C 203.226562 200.203125 203.296875 200.429688 203.476562 200.539062 C 204.605469 201.21875 205.796875 201.902344 206.753906 202.457031 L 207.09375 202.652344 C 209.605469 204.101562 212.195312 205.597656 214.785156 207.015625 C 215.351562 207.324219 215.914062 207.632812 216.480469 207.945312 C 221.933594 210.9375 227.578125 214.03125 233.324219 216.628906 L 233.710938 216.804688 C 237.414062 218.484375 243.609375 221.296875 246.890625 217.175781 C 247.1875 216.804688 247.46875 216.386719 247.699219 215.972656 C 247.707031 215.960938 247.710938 215.953125 247.714844 215.945312 C 247.71875 215.933594 247.722656 215.925781 247.726562 215.914062 C 247.894531 215.46875 248.03125 214.988281 248.125 214.519531 C 249.167969 209.351562 243.035156 206.40625 239.371094 204.644531 L 238.988281 204.460938 C 233.308594 201.71875 227.316406 199.378906 221.519531 197.117188 C 220.921875 196.878906 220.320312 196.644531 219.722656 196.414062 " fill-opacity="1" fill-rule="nonzero"/></g><path fill="#8f4517" d="M 159.769531 133.976562 C 160.011719 134.773438 160.164062 135.601562 160.210938 136.464844 C 162.117188 134.941406 165.238281 133.574219 169.109375 132.589844 C 173.59375 131.449219 178.867188 130.84375 184.355469 130.84375 C 189.851562 130.84375 195.125 131.449219 199.609375 132.589844 C 203.484375 133.578125 206.609375 134.945312 208.511719 136.476562 C 208.558594 135.609375 208.710938 134.777344 208.949219 133.984375 C 203.972656 130.65625 194.671875 128.570312 184.355469 128.570312 C 174.046875 128.570312 164.75 130.65625 159.769531 133.976562 " fill-opacity="1" fill-rule="nonzero"/><path fill="#8f4517" d="M 159.769531 144.71875 C 160.011719 145.511719 160.164062 146.34375 160.210938 147.207031 C 162.117188 145.679688 165.238281 144.316406 169.109375 143.328125 C 173.59375 142.1875 178.867188 141.582031 184.355469 141.582031 C 189.851562 141.582031 195.125 142.1875 199.609375 143.332031 C 203.484375 144.320312 206.609375 145.683594 208.511719 147.214844 C 208.558594 146.351562 208.710938 145.519531 208.949219 144.722656 C 203.972656 141.398438 194.671875 139.3125 184.355469 139.3125 C 174.046875 139.3125 164.75 141.394531 159.769531 144.71875 " fill-opacity="1" fill-rule="nonzero"/><g clip-path="url(#4521efc04f)"><path fill="#8f4517" d="M 217.945312 122.589844 L 217.835938 122.644531 L 217.8125 122.664062 C 217.804688 122.667969 217.792969 122.671875 217.78125 122.675781 L 217.726562 122.707031 C 216.015625 123.695312 207.480469 129.023438 207.480469 136.980469 L 207.480469 148.09375 C 207.480469 150.042969 205.003906 152.363281 201.011719 154.152344 C 196.386719 156.230469 190.472656 157.371094 184.355469 157.371094 C 178.238281 157.371094 172.324219 156.230469 167.699219 154.152344 C 163.707031 152.363281 161.226562 150.042969 161.226562 148.09375 L 161.242188 136.980469 L 161.242188 136.96875 C 161.226562 128.648438 151.914062 123.214844 150.851562 122.625 L 150.785156 122.589844 C 145.042969 119.519531 141.476562 113.570312 141.476562 107.058594 C 141.476562 102.355469 143.304688 97.933594 146.621094 94.609375 C 149.941406 91.285156 154.351562 89.453125 159.039062 89.453125 C 160.804688 89.453125 162.535156 89.710938 164.191406 90.222656 L 165.117188 90.507812 L 165.449219 89.59375 C 166.839844 85.738281 169.34375 82.433594 172.6875 80.039062 C 176.105469 77.59375 180.140625 76.300781 184.355469 76.300781 C 188.574219 76.300781 192.609375 77.59375 196.027344 80.039062 C 199.371094 82.433594 201.875 85.742188 203.261719 89.597656 L 203.589844 90.515625 L 204.519531 90.226562 C 206.1875 89.714844 207.921875 89.453125 209.679688 89.453125 C 214.375 89.453125 218.785156 91.285156 222.101562 94.609375 C 225.417969 97.933594 227.246094 102.355469 227.246094 107.058594 C 227.246094 113.570312 223.683594 119.519531 217.945312 122.589844 Z M 223.542969 93.164062 C 219.839844 89.457031 214.917969 87.414062 209.679688 87.414062 C 208.039062 87.414062 206.414062 87.617188 204.835938 88.019531 C 203.257812 84.148438 200.636719 80.832031 197.210938 78.378906 C 193.445312 75.683594 189 74.257812 184.355469 74.257812 C 179.714844 74.257812 175.269531 75.683594 171.503906 78.378906 C 168.078125 80.828125 165.457031 84.144531 163.875 88.011719 C 162.308594 87.613281 160.6875 87.414062 159.039062 87.414062 C 153.804688 87.414062 148.882812 89.457031 145.179688 93.164062 C 141.480469 96.878906 139.4375 101.8125 139.4375 107.058594 C 139.4375 114.332031 143.421875 120.976562 149.839844 124.398438 L 149.878906 124.417969 C 150.359375 124.6875 152.617188 126.003906 154.820312 128.167969 C 157.722656 131.015625 159.199219 133.976562 159.203125 136.96875 L 159.191406 148.09375 C 159.191406 150.941406 161.988281 153.828125 166.863281 156.019531 C 171.746094 158.207031 177.957031 159.414062 184.355469 159.414062 C 190.753906 159.414062 196.964844 158.207031 201.84375 156.019531 C 206.722656 153.828125 209.519531 150.941406 209.519531 148.09375 L 209.519531 136.980469 C 209.519531 134.09375 210.894531 131.230469 213.605469 128.46875 C 215.726562 126.304688 218.023438 124.894531 218.71875 124.492188 C 218.769531 124.464844 218.824219 124.4375 218.878906 124.40625 L 218.890625 124.398438 C 225.300781 120.976562 229.285156 114.328125 229.285156 107.058594 C 229.285156 101.808594 227.246094 96.875 223.542969 93.164062 " fill-opacity="1" fill-rule="nonzero"/></g><path fill="#8f4517" d="M 221.40625 117.316406 C 219.609375 120.675781 216.523438 122.183594 215.054688 123.386719 C 213.929688 124.308594 212.757812 125.203125 211.753906 126.253906 C 210.730469 127.324219 208.011719 131.589844 206.21875 129.636719 C 205.234375 128.5625 204.550781 126.65625 204.636719 124.945312 C 204.675781 124.183594 204.78125 122.980469 204.78125 122.980469 C 204.78125 122.980469 203.890625 124.21875 203.546875 124.585938 C 201.496094 126.757812 198.277344 127.789062 193.265625 127.117188 C 187 126.277344 186.363281 121.429688 186.363281 121.429688 L 185.796875 118.074219 C 185.796875 118.074219 184.726562 121.074219 184.390625 121.824219 C 183.027344 124.886719 182.238281 126.070312 176.632812 127.515625 C 171.640625 128.800781 167.492188 127.878906 165.335938 124.234375 C 164.59375 122.976562 163.742188 121.238281 163.742188 121.238281 L 163.878906 123.039062 C 163.878906 123.039062 164.777344 128.613281 162.019531 129.769531 C 161.851562 129.84375 161.679688 129.894531 161.507812 129.929688 C 161.503906 129.925781 148.570312 121.136719 146.019531 110.660156 C 144.050781 102.574219 152.367188 84.449219 172.539062 97.890625 C 173.035156 98.242188 174.261719 99.0625 174.261719 99.0625 C 174.261719 99.0625 174.191406 98.332031 173.605469 97.226562 C 172.558594 95.253906 171.785156 94.066406 170.296875 92.4375 C 170.117188 92.242188 168.050781 90.152344 167.773438 90.097656 C 167.777344 90.097656 167.773438 90.101562 167.773438 90.097656 C 167.804688 90.042969 167.523438 90 168.613281 88.425781 C 173.296875 81.671875 185.910156 78.410156 194.03125 83.445312 C 196.738281 85.125 199.882812 87.71875 201.210938 90.636719 C 202.699219 93.910156 203.476562 96.09375 202.6875 100.136719 C 202.472656 101.242188 201.578125 103.699219 201.578125 103.699219 C 201.578125 103.699219 202.804688 102.304688 203.15625 101.875 C 204.289062 100.5 204.507812 99.960938 205.761719 98.667969 C 208.40625 95.949219 212.785156 95.828125 215.953125 97.570312 C 217.519531 98.429688 218.878906 99.550781 220.035156 100.914062 C 223.582031 105.078125 224.5 111.523438 221.40625 117.316406 Z M 228.359375 107.363281 C 228.128906 105.339844 227.429688 97.941406 223.699219 94.789062 C 219.96875 91.636719 217.535156 88.953125 211.1875 88.484375 C 207.492188 88.214844 205.828125 88.484375 205.082031 88.761719 C 205.074219 88.726562 205.070312 88.691406 205.0625 88.65625 C 204.695312 88.730469 204.335938 88.8125 203.980469 88.90625 C 203.691406 87.664062 203.253906 86.515625 202.621094 85.632812 C 200.640625 82.863281 196.160156 76.023438 185.628906 75.292969 C 175.101562 74.5625 166.394531 83.648438 165.25 87.25 C 165.128906 87.628906 165.035156 88.046875 165.003906 88.457031 C 164.886719 88.394531 164.8125 88.359375 164.808594 88.367188 C 164.648438 88.714844 164.5 89.066406 164.355469 89.421875 C 159.882812 87.578125 152.957031 88.605469 149.078125 91.230469 C 144.5625 94.285156 141.414062 98.445312 140.480469 106.167969 C 139.554688 113.890625 145.414062 119.804688 147.859375 122.140625 C 149.226562 123.445312 154.210938 124.9375 156.460938 127.984375 C 156.742188 128.363281 157.015625 128.691406 157.28125 128.96875 L 158.867188 132.9375 L 160.792969 134.324219 L 159.890625 134.871094 L 160.433594 145.195312 L 163.128906 143.265625 L 163.128906 133.882812 L 162.800781 133.738281 L 170.390625 130.886719 L 182.335938 129.859375 L 195.328125 130.59375 L 205.546875 133.53125 L 206.476562 133.8125 C 204.972656 137.765625 205.382812 142.84375 205.382812 142.84375 L 208.949219 145.808594 L 208.949219 133.597656 L 209.664062 131.359375 C 209.664062 131.359375 211.140625 129.894531 211.667969 128.570312 C 213.511719 127.800781 217.042969 124.914062 225.175781 117.5625 C 227.707031 115.273438 228.59375 109.386719 228.359375 107.363281 " fill-opacity="1" fill-rule="nonzero"/><path fill="#8f4517" d="M 275.640625 116.566406 C 275.6875 120.71875 275.808594 122.203125 276.46875 121.269531 C 277.128906 120.335938 278.71875 110.382812 286.230469 109.777344 C 293.742188 109.167969 286.230469 107.980469 286.230469 107.980469 C 286.230469 107.980469 279.9375 106.460938 279.613281 99.101562 C 279.28125 91.640625 277.835938 98.609375 277.710938 99.101562 C 276.925781 102 274.984375 107.328125 268.804688 106.949219 C 265.308594 106.730469 266.546875 108.632812 268.558594 108.839844 C 271.574219 109.117188 275.566406 110.167969 275.640625 116.566406 Z M 275.640625 116.566406 " fill-opacity="1" fill-rule="nonzero"/><g clip-path="url(#37c608fbd5)"><path fill="#8f4517" d="M 288.460938 122.855469 C 288.460938 124.742188 288.535156 125.414062 288.835938 124.988281 C 289.136719 124.5625 289.851562 120.039062 293.277344 119.769531 C 296.703125 119.5 293.277344 118.953125 293.277344 118.953125 C 292.839844 118.824219 292.4375 118.628906 292.066406 118.367188 C 291.691406 118.105469 291.371094 117.792969 291.101562 117.429688 C 290.828125 117.0625 290.621094 116.667969 290.480469 116.238281 C 290.339844 115.804688 290.269531 115.363281 290.273438 114.910156 C 290.125 111.523438 289.46875 114.695312 289.410156 114.910156 C 289.054688 116.230469 288.167969 118.648438 285.363281 118.46875 C 283.773438 118.371094 284.335938 119.234375 285.246094 119.328125 C 286.613281 119.472656 288.429688 119.949219 288.460938 122.855469 Z M 288.460938 122.855469 " fill-opacity="1" fill-rule="nonzero"/></g><g fill="#8f4517" fill-opacity="1"><g transform="translate(74.612126, 265.394428)"><g><path d="M 12.953125 -23.890625 C 6.511719 -23.867188 3.394531 -20.351562 1.921875 -17.050781 C 0.820312 -14.636719 0.632812 -11.171875 1.335938 -8.152344 C 2.0625 -4.941406 3.769531 -2.4375 6.746094 -0.914062 C 9.859375 0.703125 13.164062 0.960938 16.535156 0.140625 C 20.703125 -0.84375 23.445312 -3.417969 24.710938 -7.496094 C 25.644531 -10.585938 25.386719 -13.632812 24.289062 -16.628906 C 23.585938 -18.480469 20.9375 -23.9375 12.953125 -23.890625 Z M 13.070312 -15.503906 C 14.730469 -15.503906 16.230469 -13.984375 16.066406 -11.335938 C 15.925781 -8.6875 14.402344 -7.730469 13.164062 -7.660156 C 11.945312 -7.566406 10.140625 -8.523438 9.976562 -11.242188 C 9.789062 -14.03125 11.335938 -15.503906 13.070312 -15.503906 Z M 13.070312 -15.503906 "/></g></g></g><g fill="#8f4517" fill-opacity="1"><g transform="translate(105.228192, 265.394428)"><g><path d="M 15.621094 -0.0703125 C 18.902344 -0.28125 21.59375 -4.285156 19.699219 -7.824219 C 16.394531 -8.222656 12.132812 -8.269531 10 -8.105469 C 10.09375 -11.03125 10.09375 -15.808594 9.8125 -18.574219 C 9.179688 -24.3125 3.675781 -24.265625 1.523438 -22.320312 C 0.609375 -16.535156 0.9375 -8.453125 1.429688 -5.152344 C 2.109375 -0.5625 5.949219 -0.0703125 8.363281 -0.0703125 C 8.363281 -0.0703125 12.320312 0.140625 15.621094 -0.0703125 Z M 15.621094 -0.0703125 "/></g></g></g><g fill="#8f4517" fill-opacity="1"><g transform="translate(130.810242, 265.394428)"><g><path d="M 22.601562 -12.273438 C 22.601562 -17.308594 20.820312 -20.515625 17.050781 -22.507812 C 13.960938 -24.148438 5.550781 -24.570312 1.664062 -22.273438 C 1.265625 -15.222656 1.242188 -9.34375 1.59375 -5.527344 C 1.992188 -1.03125 4.683594 0.492188 10.304688 0.492188 C 20.46875 0.492188 22.601562 -7.988281 22.601562 -12.273438 Z M 10.867188 -6.066406 C 10.515625 -6.066406 9.789062 -6.183594 9.765625 -6.910156 C 9.71875 -9.554688 9.765625 -15.996094 9.765625 -17.472656 C 11.640625 -17.824219 14.636719 -17.003906 14.613281 -12.414062 C 14.613281 -7.660156 12.671875 -6.113281 10.867188 -6.066406 Z M 10.867188 -6.066406 "/></g></g></g><g fill="#8f4517" fill-opacity="1"><g transform="translate(158.593202, 265.394428)"><g/></g></g><g fill="#8f4517" fill-opacity="1"><g transform="translate(174.786252, 265.394428)"><g><path d="M 15.269531 -13.164062 C 15.246094 -13.140625 15.199219 -13.140625 15.175781 -13.117188 C 15.082031 -13.28125 14.964844 -13.445312 14.871094 -13.632812 C 13.1875 -16.605469 12.390625 -18.105469 10.773438 -20.84375 C 8.546875 -24.617188 3.699219 -23.984375 1.476562 -22.085938 C 1.195312 -19.324219 1.265625 -9.0625 1.453125 -3.277344 C 1.546875 -0.46875 6.113281 2.109375 9.953125 -1.03125 C 10.023438 -4.378906 9.8125 -5.949219 9.742188 -8.757812 C 9.789062 -8.757812 9.859375 -8.78125 9.90625 -8.78125 C 10 -8.640625 10.117188 -8.523438 10.1875 -8.386719 C 10.726562 -7.542969 12.34375 -4.402344 13.65625 -2.601562 C 16.535156 1.3125 21.59375 0.867188 23.609375 -1.148438 C 23.960938 -5.878906 23.75 -16.652344 23.75 -19.511719 C 23.75 -23.46875 18.128906 -25.386719 15.269531 -21.921875 C 15.269531 -18.691406 15.269531 -16.324219 15.269531 -13.164062 Z M 15.269531 -13.164062 "/></g></g></g><g fill="#8f4517" fill-opacity="1"><g transform="translate(204.442346, 265.394428)"><g><path d="M 9.625 -18.832031 C 8.757812 -24.453125 3.511719 -24.453125 1.335938 -22.53125 C 0.585938 -19.675781 0.84375 -6.746094 1.242188 -4.660156 C 2.273438 0.609375 7.402344 1.382812 9.367188 -0.75 C 9.90625 -4.683594 10.046875 -16.019531 9.625 -18.832031 Z M 9.625 -18.832031 "/></g></g></g><g fill="#8f4517" fill-opacity="1"><g transform="translate(220.026628, 265.394428)"><g><path d="M 15.246094 -15.832031 C 18.292969 -14.589844 22.4375 -16.910156 21.289062 -21.359375 C 16.300781 -24.242188 11.59375 -24.242188 7.707031 -22.34375 C 4.800781 -20.9375 2.648438 -18.902344 1.617188 -15.832031 C 0.703125 -13.09375 0.632812 -9.859375 1.570312 -7.191406 C 2.671875 -3.980469 5.363281 0.328125 13 0.328125 C 21.804688 0.328125 23.75 -5.832031 23.5625 -8.851562 C 23.328125 -12.929688 17.027344 -13.164062 15.925781 -11.664062 C 15.878906 -9.859375 15.832031 -7.472656 13.28125 -7.472656 C 11.617188 -7.449219 10.09375 -8.617188 9.859375 -10.75 C 9.601562 -12.53125 9.953125 -14.308594 11.59375 -15.316406 C 12.835938 -16.113281 13.84375 -16.183594 15.246094 -15.832031 Z M 15.246094 -15.832031 "/></g></g></g><g fill="#8f4517" fill-opacity="1"><g transform="translate(248.769569, 265.394428)"><g><path d="M 9.8125 -15.316406 C 9.8125 -15.550781 9.953125 -17.777344 9.742188 -19.835938 C 9.390625 -23.398438 4.121094 -24.6875 1.007812 -22.109375 C 0.726562 -17.847656 1.007812 -6.441406 1.195312 -3.863281 C 1.59375 1.898438 8.59375 0.609375 9.882812 -0.5625 C 9.882812 -2.996094 9.882812 -5.457031 9.882812 -7.753906 C 11.429688 -7.753906 12.765625 -7.753906 14.261719 -7.753906 C 14.261719 -6.746094 14.308594 -4.050781 14.472656 -2.832031 C 15.011719 1.429688 21.992188 0.585938 23.046875 -0.585938 C 23.09375 -1.125 23.117188 -2.25 23.117188 -3.066406 C 23.140625 -9.015625 23.140625 -16.488281 23.140625 -18.832031 C 23.140625 -23.304688 17.425781 -24.757812 14.542969 -22.460938 C 14.332031 -21.195312 14.378906 -17.941406 14.308594 -15.316406 C 12.8125 -15.316406 11.359375 -15.316406 9.8125 -15.316406 Z M 9.8125 -15.316406 "/></g></g></g><g fill="#8f4517" fill-opacity="1"><g transform="translate(277.372026, 265.394428)"><g><path d="M 21.054688 -23.375 C 18.386719 -23.351562 8.570312 -23.492188 5.621094 -23.304688 C 1.171875 -23.023438 0.84375 -17.542969 2.34375 -15.597656 C 3.863281 -15.292969 5.574219 -15.316406 7.144531 -15.433594 C 7.074219 -10.960938 7.285156 -6.113281 7.519531 -4.800781 C 8.546875 0.632812 13.679688 1.40625 15.644531 -0.773438 C 16.089844 -3.980469 16.253906 -11.054688 16.089844 -15.410156 C 16.207031 -15.410156 16.792969 -15.457031 17.613281 -15.503906 C 22.859375 -15.832031 22.296875 -21.734375 21.054688 -23.375 Z M 21.054688 -23.375 "/></g></g></g><g fill="#8f4517" fill-opacity="1"><g transform="translate(136.151724, 293.380652)"><g><path d="M 1.707031 0.195312 C 2.167969 0.171875 2.4375 -0.0234375 2.582031 -0.339844 C 3.117188 -0.0976562 3.726562 0.046875 4.53125 0 C 7.382812 -0.195312 8.136719 -4.289062 8.210938 -7.066406 C 8.257812 -9.109375 8.039062 -11.304688 7.578125 -12.789062 C 7.039062 -14.8125 6.359375 -15.808594 4.191406 -16.054688 C 3.652344 -16.101562 2.824219 -16.03125 2.289062 -15.882812 C 2.191406 -15.980469 2.070312 -16.054688 1.925781 -16.101562 C 1.65625 -16.152344 1.363281 -16.101562 1.070312 -15.90625 C 0.730469 -15.664062 0.632812 -15.273438 0.609375 -14.882812 C 0.585938 -13.765625 0.585938 -12.691406 0.511719 -11.570312 C 0.390625 -8.160156 0.632812 -4.480469 0.730469 -1.121094 C 0.730469 -0.4375 0.925781 0.195312 1.707031 0.195312 Z M 2.605469 -14.082031 C 2.921875 -14.25 3.484375 -14.324219 4.289062 -14.152344 C 5.503906 -13.910156 5.675781 -12.910156 5.820312 -12.300781 C 6.113281 -10.742188 6.332031 -8.867188 6.238281 -7.066406 C 6.1875 -5.796875 5.726562 -1.996094 4.480469 -1.996094 C 3.605469 -1.996094 3.046875 -2.242188 2.703125 -2.410156 L 2.703125 -2.558594 C 2.632812 -6.285156 2.386719 -10.328125 2.605469 -14.082031 Z M 2.605469 -14.082031 "/></g></g></g><g fill="#8f4517" fill-opacity="1"><g transform="translate(150.37644, 293.380652)"><g><path d="M 2.242188 0.171875 C 3.265625 0.0976562 4.335938 0.21875 5.359375 0.121094 C 6.285156 0.0742188 7.671875 0.535156 7.722656 -0.902344 C 7.746094 -2.484375 6.332031 -1.898438 5.457031 -1.925781 C 2.507812 -1.949219 2.484375 -1.582031 2.484375 -4.945312 C 2.484375 -6.210938 2.363281 -8.378906 2.703125 -8.722656 C 3.046875 -9.085938 2.851562 -9.085938 4.164062 -9.085938 L 6.332031 -8.988281 C 7.039062 -9.011719 7.746094 -9.085938 7.722656 -10.011719 C 7.722656 -10.988281 6.992188 -11.058594 6.285156 -11.058594 C 5.285156 -11.035156 4.3125 -10.960938 3.3125 -10.9375 C 2.339844 -10.863281 2.484375 -11.839844 2.484375 -12.472656 C 2.484375 -13.082031 2.289062 -14.054688 3.289062 -14.007812 C 4.335938 -13.957031 5.382812 -14.007812 6.429688 -13.984375 C 7.1875 -13.957031 7.867188 -14.105469 7.867188 -15.007812 C 7.867188 -15.859375 7.210938 -15.933594 6.527344 -15.933594 C 5.117188 -15.90625 3.679688 -15.882812 2.289062 -15.980469 C 0.972656 -16.03125 0.414062 -15.589844 0.488281 -14.179688 C 0.609375 -12.132812 0.511719 -10.085938 0.511719 -8.039062 L 0.511719 -1.582031 C 0.414062 -0.367188 0.902344 0.269531 2.242188 0.171875 Z M 2.242188 0.171875 "/></g></g></g><g fill="#8f4517" fill-opacity="1"><g transform="translate(164.260264, 293.380652)"><g><path d="M 2.121094 0 C 3.800781 -0.046875 4.605469 -0.0234375 6.308594 0 C 7.015625 0 7.601562 -0.21875 7.578125 -1.023438 C 7.578125 -1.851562 6.941406 -1.972656 6.261719 -1.949219 L 3.800781 -1.898438 C 2.851562 -1.875 2.558594 -2.191406 2.582031 -3.167969 C 2.65625 -6.773438 2.65625 -10.402344 2.679688 -14.03125 C 2.679688 -14.347656 2.703125 -14.640625 2.679688 -14.957031 C 2.65625 -15.617188 2.386719 -16.078125 1.632812 -16.101562 C 0.878906 -16.101562 0.558594 -15.566406 0.558594 -14.933594 C 0.535156 -13.007812 0.460938 -11.058594 0.488281 -9.109375 C 0.488281 -5.945312 0.535156 -3.824219 0.488281 -1.730469 C 0.460938 -0.558594 0.878906 0.0234375 2.121094 0 Z M 2.121094 0 "/></g></g></g><g fill="#8f4517" fill-opacity="1"><g transform="translate(177.851876, 293.380652)"><g><path d="M 1.558594 0.144531 C 2.363281 0.144531 2.605469 -0.4375 2.605469 -1.144531 L 2.605469 -2.582031 C 2.605469 -6.503906 2.410156 -10.765625 2.753906 -14.691406 C 2.800781 -15.226562 2.703125 -15.933594 2.070312 -16.125 C 1.800781 -16.199219 1.511719 -16.152344 1.21875 -15.957031 C 0.878906 -15.710938 0.753906 -15.324219 0.730469 -14.933594 C 0.683594 -13.8125 0.65625 -12.742188 0.585938 -11.621094 C 0.390625 -8.234375 0.558594 -4.53125 0.609375 -1.167969 C 0.609375 -0.488281 0.78125 0.144531 1.558594 0.144531 Z M 1.558594 0.144531 "/></g></g></g><g fill="#8f4517" fill-opacity="1"><g transform="translate(186.622183, 293.380652)"><g><path d="M 4.605469 0.339844 C 5.457031 0.488281 5.675781 -0.144531 5.796875 -0.878906 C 6.480469 -4.191406 7.503906 -8.378906 8.234375 -11.667969 L 9.085938 -14.8125 C 9.207031 -15.542969 9.039062 -16.273438 8.160156 -16.273438 C 7.210938 -16.273438 7.160156 -15.445312 6.96875 -14.835938 C 6.261719 -11.71875 5.480469 -8.429688 4.726562 -5.214844 C 4.019531 -8.5 3.265625 -11.816406 2.558594 -15.03125 C 2.4375 -15.761719 2.242188 -16.589844 1.21875 -16.320312 C 0.367188 -16.125 0.414062 -15.445312 0.585938 -14.714844 C 1.316406 -11.425781 2.046875 -8.085938 2.753906 -4.800781 L 3.628906 -0.65625 C 3.75 -0.046875 4.09375 0.390625 4.605469 0.339844 Z M 4.605469 0.339844 "/></g></g></g><g fill="#8f4517" fill-opacity="1"><g transform="translate(201.747862, 293.380652)"><g><path d="M 2.242188 0.171875 C 3.265625 0.0976562 4.335938 0.21875 5.359375 0.121094 C 6.285156 0.0742188 7.671875 0.535156 7.722656 -0.902344 C 7.746094 -2.484375 6.332031 -1.898438 5.457031 -1.925781 C 2.507812 -1.949219 2.484375 -1.582031 2.484375 -4.945312 C 2.484375 -6.210938 2.363281 -8.378906 2.703125 -8.722656 C 3.046875 -9.085938 2.851562 -9.085938 4.164062 -9.085938 L 6.332031 -8.988281 C 7.039062 -9.011719 7.746094 -9.085938 7.722656 -10.011719 C 7.722656 -10.988281 6.992188 -11.058594 6.285156 -11.058594 C 5.285156 -11.035156 4.3125 -10.960938 3.3125 -10.9375 C 2.339844 -10.863281 2.484375 -11.839844 2.484375 -12.472656 C 2.484375 -13.082031 2.289062 -14.054688 3.289062 -14.007812 C 4.335938 -13.957031 5.382812 -14.007812 6.429688 -13.984375 C 7.1875 -13.957031 7.867188 -14.105469 7.867188 -15.007812 C 7.867188 -15.859375 7.210938 -15.933594 6.527344 -15.933594 C 5.117188 -15.90625 3.679688 -15.882812 2.289062 -15.980469 C 0.972656 -16.03125 0.414062 -15.589844 0.488281 -14.179688 C 0.609375 -12.132812 0.511719 -10.085938 0.511719 -8.039062 L 0.511719 -1.582031 C 0.414062 -0.367188 0.902344 0.269531 2.242188 0.171875 Z M 2.242188 0.171875 "/></g></g></g><g fill="#8f4517" fill-opacity="1"><g transform="translate(215.631688, 293.380652)"><g><path d="M 1.582031 0 C 2.605469 -0.0234375 2.605469 -0.878906 2.605469 -1.609375 C 2.605469 -2.460938 2.558594 -2.972656 2.558594 -3.484375 C 2.558594 -3.777344 2.726562 -3.703125 2.824219 -3.582031 C 3.582031 -2.703125 4.3125 -1.800781 5.019531 -0.902344 C 5.53125 -0.21875 6.066406 0.683594 6.96875 -0.046875 C 7.867188 -0.753906 7.066406 -1.535156 6.527344 -2.167969 C 5.75 -3.191406 4.945312 -4.238281 4.117188 -5.261719 C 4.066406 -5.335938 4.09375 -5.433594 4.191406 -5.457031 C 5.992188 -5.820312 7.234375 -6.773438 7.453125 -8.476562 C 8.28125 -14.835938 5.285156 -16.785156 1.535156 -16.078125 C 0.683594 -15.90625 0.488281 -15.394531 0.488281 -14.617188 C 0.535156 -12.496094 0.511719 -10.328125 0.511719 -8.160156 L 0.535156 -1.582031 C 0.535156 -0.804688 0.535156 0 1.582031 0 Z M 2.4375 -7.40625 L 2.4375 -11.621094 C 2.4375 -13.570312 2.289062 -13.765625 2.800781 -13.859375 C 3.507812 -14.054688 4.605469 -13.859375 5.066406 -13.203125 C 5.75 -12.230469 5.796875 -9.136719 5.261719 -8.085938 C 4.800781 -7.285156 3.945312 -7.039062 2.851562 -6.96875 C 2.507812 -6.96875 2.4375 -6.894531 2.4375 -7.40625 Z M 2.4375 -7.40625 "/></g></g></g><g fill="#8f4517" fill-opacity="1"><g transform="translate(229.247656, 293.380652)"><g><path d="M 2.535156 0.171875 C 3.410156 0.460938 3.703125 -0.144531 3.945312 -0.828125 C 5.117188 -4.042969 6.429688 -7.648438 7.601562 -10.792969 L 9.039062 -14.519531 C 9.207031 -15.226562 9.109375 -15.980469 8.234375 -16.054688 C 7.285156 -16.101562 7.160156 -15.273438 6.941406 -14.691406 C 6.332031 -13.082031 5.699219 -11.402344 5.089844 -9.695312 C 5.019531 -9.574219 4.871094 -9.550781 4.800781 -9.695312 C 4.066406 -11.523438 3.335938 -13.324219 2.632812 -15.03125 C 2.363281 -15.738281 2.046875 -16.515625 1.070312 -16.078125 C 0.269531 -15.738281 0.4375 -15.078125 0.730469 -14.371094 C 1.753906 -11.886719 2.824219 -9.378906 3.824219 -6.894531 C 3.898438 -6.699219 3.898438 -6.480469 3.824219 -6.308594 L 2.121094 -1.65625 C 1.851562 -0.949219 1.535156 -0.171875 2.535156 0.171875 Z M 2.535156 0.171875 "/></g></g></g><path fill="#8f4517" d="M 88.933594 116.566406 C 88.980469 120.71875 89.101562 122.203125 89.761719 121.269531 C 90.421875 120.335938 92.011719 110.382812 99.523438 109.777344 C 107.035156 109.167969 99.523438 107.980469 99.523438 107.980469 C 99.523438 107.980469 93.230469 106.460938 92.90625 99.101562 C 92.574219 91.640625 91.128906 98.609375 91.003906 99.101562 C 90.21875 102 88.277344 107.328125 82.097656 106.949219 C 78.601562 106.730469 79.84375 108.632812 81.851562 108.839844 C 84.867188 109.117188 88.859375 110.167969 88.933594 116.566406 Z M 88.933594 116.566406 " fill-opacity="1" fill-rule="nonzero"/><g clip-path="url(#642f0bb1cb)"><path fill="#8f4517" d="M 101.753906 122.855469 C 101.753906 124.742188 101.828125 125.414062 102.128906 124.988281 C 102.429688 124.5625 103.144531 120.039062 106.570312 119.769531 C 109.996094 119.5 106.570312 118.953125 106.570312 118.953125 C 106.136719 118.824219 105.730469 118.628906 105.359375 118.367188 C 104.984375 118.105469 104.664062 117.792969 104.394531 117.429688 C 104.121094 117.0625 103.917969 116.667969 103.773438 116.238281 C 103.632812 115.804688 103.5625 115.363281 103.566406 114.910156 C 103.417969 111.523438 102.761719 114.695312 102.703125 114.910156 C 102.347656 116.230469 101.464844 118.648438 98.65625 118.46875 C 97.066406 118.371094 97.628906 119.234375 98.542969 119.328125 C 99.910156 119.472656 101.722656 119.949219 101.753906 122.855469 Z M 101.753906 122.855469 " fill-opacity="1" fill-rule="nonzero"/></g></svg>